<svg width="81" height="80" viewBox="0 0 81 80" fill="none" xmlns="http://www.w3.org/2000/svg">
<path d="M36.4093 10L32.6687 18.9027C31.9205 19.1272 31.2472 19.5012 30.5739 19.8753L21.6712 16.1347L16.2846 21.5212L20.0253 30.4239C19.6512 31.1721 19.352 31.7706 19.0527 32.5187L10.15 36.2594V43.7407L19.0527 47.4813C19.352 48.2294 19.6512 48.8279 20.0253 49.5761L16.2846 58.4788L21.6712 63.8653L30.5739 60.1247C31.2472 60.4239 31.9205 60.798 32.6687 61.0973L36.4093 70H43.8906L47.6313 61.0973C48.3046 60.798 49.0527 60.4987 49.726 60.1247L58.6288 63.8653L64.0153 58.4788L60.2747 49.5761C60.5739 48.9027 60.948 48.1546 61.2472 47.4813L70.15 43.7407V36.2594L61.2472 32.5187C61.0228 31.8454 60.6487 31.0973 60.2747 30.4239L64.0153 21.5212L58.6288 16.1347L49.726 19.8753C49.0527 19.5761 48.3046 19.202 47.6313 18.9027L43.8906 10H36.4093V10ZM40.15 28.7032C46.3594 28.7032 51.3719 33.7157 51.3719 39.9252C51.3719 46.1347 46.3594 51.1471 40.15 51.1471C33.9405 51.1471 28.928 46.1347 28.928 39.9252C28.928 33.7157 33.9405 28.7032 40.15 28.7032Z" fill="black"/>
</svg>
