<svg width="68" height="63" viewBox="0 0 68 63" fill="none" xmlns="http://www.w3.org/2000/svg">
<path d="M33.9722 0C15.2875 0 0 14.175 0 31.5C0 48.825 15.2875 63 33.9722 63C52.6569 63 67.9444 48.825 67.9444 31.5C67.9444 14.175 52.6569 0 33.9722 0ZM33.9722 7.875C48.0707 7.875 59.4514 18.4275 59.4514 31.5C59.4514 44.5725 48.0707 55.125 33.9722 55.125C19.8737 55.125 8.49305 44.5725 8.49305 31.5C8.49305 18.4275 19.8737 7.875 33.9722 7.875ZM29.7257 15.75V33.2325L31.0846 34.2562L35.3311 38.1937L38.2187 41.1862L44.3337 35.5163L41.1064 32.8387L38.2187 30.1612V15.9075H29.7257V15.75Z" fill="black"/>
</svg>
