<svg width="59" height="59" viewBox="0 0 59 59" fill="none" xmlns="http://www.w3.org/2000/svg">
<path d="M37.1693 0.0221175C35.5894 0.188423 34.0926 1.26941 33.2611 2.84931C32.1801 5.01128 24.1975 21.0598 22.6176 22.6397C21.0377 24.2196 18.9588 24.968 16.6306 24.968V58.2291H45.734C47.4802 58.2291 48.977 57.1481 49.6422 55.6513C49.6422 55.6513 58.2069 31.4539 58.2069 29.1256C58.2069 26.7973 56.3776 24.968 54.0493 24.968H41.5764C39.2481 24.968 37.4188 22.8891 37.4188 20.8103C37.4188 18.7315 40.6617 7.67217 41.3269 5.5102C41.9922 3.34823 40.9112 1.01995 38.7492 0.271576C38.1671 0.10527 37.7514 -0.0610353 37.1693 0.0221175ZM0 24.968V58.2291H8.31528V24.968H0Z" fill="black"/>
</svg>
