<svg width="30" height="48" viewBox="0 0 30 48" fill="none" xmlns="http://www.w3.org/2000/svg">
<path d="M1.13772 0C0.479042 0 0 0.479042 0 1.13772V46.8263C0 47.485 0.479042 47.9641 1.13772 47.9641H28.8623C29.521 47.9641 30 47.485 30 46.8263V1.13772C30 0.479042 29.521 0 28.8623 0H1.13772V0ZM5.98802 5.98802H23.9521V35.9281H5.98802V5.98802ZM14.9701 38.9222C16.6467 38.9222 17.9641 40.2395 17.9641 41.9162C17.9641 43.5928 16.6467 44.9102 14.9701 44.9102C13.2934 44.9102 11.976 43.5928 11.976 41.9162C11.976 40.2395 13.2934 38.9222 14.9701 38.9222Z" fill="black"/>
</svg>
